# xmcd CD database file
#
# Track frame offsets:
#	150
#	16050
#	36555
#
# Disc length: 671 seconds
#
# Revision: 0
# Processed by: cddbd v1.5.1PL0 Copyright (c) Steve Scherf et al.
# Submitted via: CDex 1.51
#
DISCID=1c029d03
DTITLE=THE JERRY LEE PHANTOM - monstAr
DYEAR=1999
DGENRE=Rock
TTITLE0=monstAr
TTITLE1=カウハット
TTITLE2=HIGH-PUNK the DISCO-
EXTD=YEAR: 1999
EXTT0=
EXTT1=
EXTT2=
PLAYORDER=
